# xmcd CD database file
#
# Track frame offsets:
#	150
#	16050
#	33925
#	52837
#	66225
#	91012
#	112550
#	124037
#	142212
#	160875
#
# Disc length: 2421 seconds
#
# Revision: 0
# Processed by: cddbd v1.5.2PL0 Copyright (c) Steve Scherf et al.
# Submitted via: CDex 1.51
#
DISCID=7209730a
DTITLE=Benck, Sarah Benck and the Robbers - Neighbours Garden - Benck, Sarah Benck and the Robbers - Neighbours Garden
DYEAR=1900
DGENRE=Blues
TTITLE0=neighbour´s garden
TTITLE1=dump the truck
TTITLE2=dig your grave
TTITLE3=what you got
TTITLE4=good man
TTITLE5=got to be
TTITLE6=once a week
TTITLE7=trails
TTITLE8=alone
TTITLE9=i can still
EXTD=
EXTT0=
EXTT1=
EXTT2=
EXTT3=
EXTT4=
EXTT5=
EXTT6=
EXTT7=
EXTT8=
EXTT9=
PLAYORDER=
